<svg width="129" height="58" viewBox="0 0 129 58" fill="none" xmlns="http://www.w3.org/2000/svg">
<path d="M127.856 5.80887C128.376 5.99617 128.645 6.5692 128.458 7.08875C128.271 7.6083 127.698 7.87765 127.178 7.69034L127.856 5.80887ZM64.4053 7.60353L63.9467 6.71487L64.4053 7.60353ZM0.845278 52.4674C0.375598 52.1769 0.230393 51.5606 0.520937 51.0909L5.25579 43.4371C5.54634 42.9674 6.16263 42.8222 6.63231 43.1127C7.10198 43.4033 7.24719 44.0196 6.95664 44.4893L2.74789 51.2927L9.5513 55.5014C10.021 55.792 10.1662 56.4083 9.87563 56.8779C9.58507 57.3476 8.96879 57.4928 8.49911 57.2023L0.845278 52.4674ZM119.541 5.4088C119.005 5.27508 118.679 4.73229 118.813 4.19644C118.946 3.66058 119.489 3.33459 120.025 3.46831L119.541 5.4088ZM103.949 0.71022C104.499 0.763357 104.901 1.25207 104.848 1.80179C104.795 2.35152 104.306 2.75408 103.757 2.70094L103.949 0.71022ZM87.7809 2.46857C87.2302 2.51019 86.75 2.09749 86.7084 1.54678C86.6667 0.996062 87.0794 0.515879 87.6301 0.474258L87.7809 2.46857ZM71.5488 3.54828C72.0735 3.37592 72.6386 3.66154 72.8109 4.18624C72.9833 4.71094 72.6977 5.27602 72.173 5.44838L71.5488 3.54828ZM56.6822 13.5981C56.2411 13.9303 55.6141 13.842 55.2818 13.4008C54.9496 12.9597 55.0379 12.3327 55.4791 12.0005L56.6822 13.5981ZM41.6487 26.1814C41.999 25.7544 42.6291 25.6923 43.0561 26.0426C43.4831 26.393 43.5452 27.0231 43.1948 27.45L41.6487 26.1814ZM29.0471 41.3366C28.5941 41.6526 27.9708 41.5415 27.6548 41.0886C27.3388 40.6356 27.4498 40.0123 27.9028 39.6963L29.0471 41.3366ZM10.5402 48.0274C11.065 47.8553 11.6299 48.1413 11.802 48.6661C11.974 49.1909 11.6881 49.7558 11.1633 49.9279L10.5402 48.0274ZM127.178 7.69034C125.118 6.94769 122.528 6.15432 119.541 5.4088L120.025 3.46831C123.07 4.22806 125.725 5.04046 127.856 5.80887L127.178 7.69034ZM103.757 2.70094C98.6528 2.20761 93.2264 2.05702 87.7809 2.46857L87.6301 0.474258C93.2089 0.0526332 98.7518 0.207857 103.949 0.71022L103.757 2.70094ZM72.173 5.44838C69.6584 6.27439 67.211 7.28096 64.8639 8.49218L63.9467 6.71487C66.396 5.45094 68.9423 4.40448 71.5488 3.54828L72.173 5.44838ZM64.8639 8.49218C61.7077 10.1209 59.0276 11.8319 56.6822 13.5981L55.4791 12.0005C57.9155 10.1656 60.6914 8.39475 63.9467 6.71487L64.8639 8.49218ZM43.1948 27.45C39.2983 32.1988 35.271 36.9945 29.0471 41.3366L27.9028 39.6963C33.8821 35.5248 37.7611 30.9193 41.6487 26.1814L43.1948 27.45ZM11.1633 49.9279C8.26937 50.8766 5.09638 51.7667 1.6007 52.5903L1.14203 50.6436C4.58774 49.8318 7.70553 48.9567 10.5402 48.0274L11.1633 49.9279Z" fill="#D9D9D9" fill-opacity="0.4"/>
</svg>
