<svg width="63" height="256" viewBox="0 0 63 256" fill="none" xmlns="http://www.w3.org/2000/svg">
<path d="M26.5109 1.16357C25.8339 0.290764 24.5776 0.132003 23.7048 0.808968C22.832 1.48593 22.6732 2.74227 23.3502 3.61508L26.5109 1.16357ZM59.6305 115.732L61.6006 116.077L59.6305 115.732ZM14.5347 254.742C15.3728 255.462 16.6354 255.365 17.355 254.527L29.0807 240.871C29.8002 240.033 29.7042 238.77 28.8661 238.05C28.0281 237.331 26.7654 237.427 26.0458 238.265L15.623 250.404L3.48362 239.981C2.64557 239.262 1.38289 239.358 0.663342 240.196C-0.0562036 241.034 0.0398633 242.297 0.877914 243.016L14.5347 254.742ZM29.1437 11.7306C29.7548 12.6508 30.9961 12.9013 31.9162 12.2902C32.8364 11.6792 33.0869 10.4379 32.4759 9.51774L29.1437 11.7306ZM42.869 27.1434C42.3563 26.1651 41.1475 25.7876 40.1691 26.3004C39.1908 26.8131 38.8134 28.0219 39.3261 29.0003L42.869 27.1434ZM47.7475 47.1911C48.1602 48.2157 49.3254 48.7116 50.35 48.2988C51.3745 47.8861 51.8705 46.7209 51.4577 45.6964L47.7475 47.1911ZM58.0394 65.0894C57.7472 64.0242 56.6468 63.3976 55.5816 63.6898C54.5164 63.982 53.8897 65.0824 54.1819 66.1476L58.0394 65.0894ZM58.1209 85.7076C58.2572 86.8038 59.2562 87.5819 60.3524 87.4456C61.4485 87.3093 62.2266 86.3102 62.0903 85.2141L58.1209 85.7076ZM62.8046 105.801C62.8731 104.699 62.0349 103.75 60.9325 103.681C59.83 103.613 58.8808 104.451 58.8123 105.553L62.8046 105.801ZM55.7429 124.254C55.4646 125.323 56.1055 126.415 57.1745 126.693C58.2434 126.972 59.3356 126.331 59.6138 125.262L55.7429 124.254ZM53.2665 142.913C53.7336 141.913 53.3008 140.722 52.2998 140.255C51.2988 139.788 50.1088 140.221 49.6417 141.222L53.2665 142.913ZM40.7374 157.046C40.1409 157.975 40.4109 159.212 41.3405 159.809C42.2701 160.405 43.5073 160.135 44.1039 159.206L40.7374 157.046ZM34.0419 174.615C34.6269 173.678 34.3416 172.444 33.4046 171.859C32.4677 171.274 31.2339 171.559 30.6489 172.496L34.0419 174.615ZM21.852 189.011C21.4166 190.026 21.8866 191.202 22.9018 191.637C23.9169 192.073 25.0928 191.603 25.5282 190.588L21.852 189.011ZM20.0381 207.75C20.276 206.671 19.5945 205.604 18.5159 205.366C17.4372 205.128 16.3699 205.81 16.132 206.888L20.0381 207.75ZM13.5477 225.449C13.473 226.551 14.3057 227.505 15.4078 227.579C16.5098 227.654 17.4638 226.821 17.5386 225.719L13.5477 225.449ZM17.3115 243.907C17.2714 242.803 16.3441 241.941 15.2403 241.981C14.1364 242.021 13.2741 242.948 13.3141 244.052L17.3115 243.907ZM23.3502 3.61508C25.1159 5.89167 27.0761 8.61713 29.1437 11.7306L32.4759 9.51774C30.3604 6.33222 28.3434 3.52616 26.5109 1.16357L23.3502 3.61508ZM39.3261 29.0003C42.2629 34.6038 45.1396 40.7181 47.7475 47.1911L51.4577 45.6964C48.7957 39.089 45.8618 32.8538 42.869 27.1434L39.3261 29.0003ZM54.1819 66.1476C55.9339 72.5344 57.2983 79.0923 58.1209 85.7076L62.0903 85.2141C61.2411 78.3844 59.8355 71.637 58.0394 65.0894L54.1819 66.1476ZM58.8123 105.553C58.6072 108.851 58.2295 112.134 57.6604 115.388L61.6006 116.077C62.1966 112.669 62.5909 109.239 62.8046 105.801L58.8123 105.553ZM57.6604 115.388C57.1127 118.519 56.4688 121.466 55.7429 124.254L59.6138 125.262C60.3677 122.367 61.0346 119.313 61.6006 116.077L57.6604 115.388ZM49.6417 141.222C46.9533 146.984 43.9106 152.101 40.7374 157.046L44.1039 159.206C47.3257 154.185 50.4726 148.901 53.2665 142.913L49.6417 141.222ZM30.6489 172.496C27.4901 177.556 24.4669 182.914 21.852 189.011L25.5282 190.588C28.0362 184.74 30.9485 179.569 34.0419 174.615L30.6489 172.496ZM16.132 206.888C14.9055 212.448 14.0138 218.579 13.5477 225.449L17.5386 225.719C17.9921 219.035 18.8574 213.102 20.0381 207.75L16.132 206.888ZM13.3141 244.052C13.4226 247.041 13.5976 250.146 13.8433 253.376L17.8318 253.073C17.5899 249.893 17.418 246.84 17.3115 243.907L13.3141 244.052Z" fill="#D9D9D9"/>
</svg>
