<svg width="129" height="121" viewBox="0 0 129 121" fill="none" xmlns="http://www.w3.org/2000/svg">
<path d="M92.9711 64.817L91.662 65.049C91.662 65.049 91.2866 63.2018 91.087 62.0592C90.8873 60.9166 90.7103 59.964 92.0713 59.3958C92.8799 59.0583 93.795 58.7572 94.9863 58.2594C95.8015 57.9194 96.3539 57.11 96.2834 56.4245C96.2141 55.7397 96.0578 54.4996 95.9819 53.9135C95.906 53.3274 95.4761 52.7499 94.1677 52.9745C92.8599 53.1984 88.1354 54.0079 88.1354 54.0079L87.2383 52.26C87.2383 52.26 91.9861 51.4604 94.0745 50.9811C96.1642 50.5023 97.8327 51.458 97.8327 52.8208C97.8327 54.1843 98.1355 55.7705 98.2773 57.4154C98.4183 59.0589 97.8447 59.46 96.7299 59.9381C95.3057 60.5501 92.3841 61.7717 92.3841 61.7717L92.9711 64.817Z" fill="#B7B6B6"/>
<path d="M92.2174 51.1352L85.4043 52.4614L85.9259 54.7644L92.739 53.4382L92.2174 51.1352Z" fill="#462A29"/>
<path d="M92.1631 50.9291L91.3633 51.0845L91.9747 53.789L92.7745 53.6336L92.1631 50.9291Z" fill="#583636"/>
<path d="M64.6008 98.2927C68.2319 93.4804 69.7559 91.748 70.1479 92.0021C70.5406 92.2563 68.0868 95.794 65.6756 98.9898C64.6281 100.379 63.538 101.348 63.2412 101.156C62.9443 100.964 63.5533 99.6815 64.6008 98.2927Z" fill="#8E8E8D"/>
<path d="M72.1484 92.2946C72.1843 92.7252 71.8369 93.1022 71.3724 93.1355L67.2554 93.4329C66.7909 93.4668 66.3843 93.1435 66.3483 92.7129C66.3117 92.2822 66.6598 91.9053 67.125 91.872L71.2413 91.5752C71.7058 91.5413 72.1118 91.8639 72.1484 92.2946Z" fill="#8A8989"/>
<path d="M71.5563 91.9125C71.5662 92.0244 71.4751 92.1209 71.3539 92.1295L67.1119 92.4327C66.9908 92.4412 66.885 92.3581 66.8757 92.2462C66.8663 92.1356 66.9569 92.0378 67.078 92.0299L71.3207 91.7267C71.4411 91.7181 71.5469 91.8013 71.5563 91.9125Z" fill="#5C5C5B"/>
<path d="M68.7986 92.788C68.8079 92.8992 68.7174 92.9964 68.5963 93.0049L67.4283 93.0887C67.3072 93.0979 67.2014 93.0141 67.1921 92.9029C67.1827 92.7916 67.2733 92.6944 67.3937 92.6859L68.5624 92.6027C68.6835 92.5936 68.7893 92.6761 68.7986 92.788Z" fill="#5C5C5B"/>
<path d="M69.5486 92.7332C69.5612 92.8799 69.4414 93.0083 69.2817 93.0199C69.122 93.0315 68.9822 92.9215 68.9696 92.7748C68.9576 92.6287 69.0767 92.4997 69.2365 92.4887C69.3962 92.4765 69.5359 92.5859 69.5486 92.7332Z" fill="#5C5C5B"/>
<path d="M71.3227 92.6059C71.332 92.7178 71.2415 92.815 71.1204 92.8229L69.9518 92.9067C69.8306 92.9152 69.7248 92.8321 69.7155 92.7209C69.7062 92.609 69.7974 92.5124 69.9185 92.5039L71.0865 92.4201C71.2076 92.411 71.3134 92.4947 71.3227 92.6059Z" fill="#5C5C5B"/>
<path d="M50.1211 70.1142L92.7323 66.3452" stroke="#7C5DA4" stroke-width="4.4755" stroke-miterlimit="10" stroke-linecap="round" stroke-linejoin="round"/>
<path d="M63.8984 100.472L94.3127 73.3384" stroke="#7C5DA4" stroke-width="4.4755" stroke-miterlimit="10" stroke-linecap="round" stroke-linejoin="round"/>
<path d="M26.3828 97.6424L29.9586 80.4409" stroke="#C6C6C6" stroke-width="0.3197" stroke-miterlimit="10" stroke-linecap="round" stroke-linejoin="round"/>
<path d="M28.0433 97.6424L24.4668 80.4409" stroke="#C6C6C6" stroke-width="0.3197" stroke-miterlimit="10" stroke-linecap="round" stroke-linejoin="round"/>
<path d="M28.0413 100.791L24.4648 117.991" stroke="#C6C6C6" stroke-width="0.3197" stroke-miterlimit="10" stroke-linecap="round" stroke-linejoin="round"/>
<path d="M26.3809 100.791L29.9567 117.991" stroke="#C6C6C6" stroke-width="0.3197" stroke-miterlimit="10" stroke-linecap="round" stroke-linejoin="round"/>
<path d="M28.9102 98.4468L47.4649 101.762" stroke="#C6C6C6" stroke-width="0.3197" stroke-miterlimit="10" stroke-linecap="round" stroke-linejoin="round"/>
<path d="M28.9102 99.9863L47.4649 96.6714" stroke="#C6C6C6" stroke-width="0.3197" stroke-miterlimit="10" stroke-linecap="round" stroke-linejoin="round"/>
<path d="M25.5143 99.9863L6.95898 96.6714" stroke="#C6C6C6" stroke-width="0.3197" stroke-miterlimit="10" stroke-linecap="round" stroke-linejoin="round"/>
<path d="M25.5143 98.4468L6.95898 101.762" stroke="#C6C6C6" stroke-width="0.3197" stroke-miterlimit="10" stroke-linecap="round" stroke-linejoin="round"/>
<path d="M27.8262 97.559L43.4752 87.7407" stroke="#C6C6C6" stroke-width="0.3197" stroke-miterlimit="10" stroke-linecap="round" stroke-linejoin="round"/>
<path d="M29.002 98.6477L39.5937 84.1411" stroke="#C6C6C6" stroke-width="0.3197" stroke-miterlimit="10" stroke-linecap="round" stroke-linejoin="round"/>
<path d="M26.5983 100.875L10.9492 110.693" stroke="#C6C6C6" stroke-width="0.3197" stroke-miterlimit="10" stroke-linecap="round" stroke-linejoin="round"/>
<path d="M25.4225 99.7856L14.8301 114.293" stroke="#C6C6C6" stroke-width="0.3197" stroke-miterlimit="10" stroke-linecap="round" stroke-linejoin="round"/>
<path d="M29.002 99.7856L39.5937 114.293" stroke="#C6C6C6" stroke-width="0.3197" stroke-miterlimit="10" stroke-linecap="round" stroke-linejoin="round"/>
<path d="M27.8262 100.875L43.4752 110.693" stroke="#C6C6C6" stroke-width="0.3197" stroke-miterlimit="10" stroke-linecap="round" stroke-linejoin="round"/>
<path d="M25.4225 98.6477L14.8301 84.1411" stroke="#C6C6C6" stroke-width="0.3197" stroke-miterlimit="10" stroke-linecap="round" stroke-linejoin="round"/>
<path d="M26.5983 97.5587L10.9492 87.7397" stroke="#C6C6C6" stroke-width="0.3197" stroke-miterlimit="10" stroke-linecap="round" stroke-linejoin="round"/>
<path d="M28.4785 97.9164L47.0299 94.5854" stroke="#C6C6C6" stroke-width="0.3197" stroke-miterlimit="10" stroke-linecap="round" stroke-linejoin="round"/>
<path d="M29.0977 99.3451L44.9856 89.8618" stroke="#C6C6C6" stroke-width="0.3197" stroke-miterlimit="10" stroke-linecap="round" stroke-linejoin="round"/>
<path d="M25.9446 100.517L7.39258 103.849" stroke="#C6C6C6" stroke-width="0.3197" stroke-miterlimit="10" stroke-linecap="round" stroke-linejoin="round"/>
<path d="M25.3267 99.0884L9.43945 108.572" stroke="#C6C6C6" stroke-width="0.3197" stroke-miterlimit="10" stroke-linecap="round" stroke-linejoin="round"/>
<path d="M28.6152 100.391L32.2077 117.589" stroke="#C6C6C6" stroke-width="0.3197" stroke-miterlimit="10" stroke-linecap="round" stroke-linejoin="round"/>
<path d="M27.0742 100.965L37.3039 115.693" stroke="#C6C6C6" stroke-width="0.3197" stroke-miterlimit="10" stroke-linecap="round" stroke-linejoin="round"/>
<path d="M25.8087 98.0417L22.2148 80.8433" stroke="#C6C6C6" stroke-width="0.3197" stroke-miterlimit="10" stroke-linecap="round" stroke-linejoin="round"/>
<path d="M27.3488 97.4685L17.1191 82.7397" stroke="#C6C6C6" stroke-width="0.3197" stroke-miterlimit="10" stroke-linecap="round" stroke-linejoin="round"/>
<path d="M29.0977 99.104L44.8911 108.723" stroke="#C6C6C6" stroke-width="0.3197" stroke-miterlimit="10" stroke-linecap="round" stroke-linejoin="round"/>
<path d="M28.4648 100.528L46.9829 104.017" stroke="#C6C6C6" stroke-width="0.3197" stroke-miterlimit="10" stroke-linecap="round" stroke-linejoin="round"/>
<path d="M25.326 99.3279L9.5332 89.7095" stroke="#C6C6C6" stroke-width="0.3197" stroke-miterlimit="10" stroke-linecap="round" stroke-linejoin="round"/>
<path d="M25.9595 97.9047L7.44141 94.4146" stroke="#C6C6C6" stroke-width="0.3197" stroke-miterlimit="10" stroke-linecap="round" stroke-linejoin="round"/>
<path d="M27.3325 100.965L16.957 115.606" stroke="#C6C6C6" stroke-width="0.3197" stroke-miterlimit="10" stroke-linecap="round" stroke-linejoin="round"/>
<path d="M25.7987 100.379L22.0352 117.546" stroke="#C6C6C6" stroke-width="0.3197" stroke-miterlimit="10" stroke-linecap="round" stroke-linejoin="round"/>
<path d="M27.0918 97.4678L37.4679 82.8267" stroke="#C6C6C6" stroke-width="0.3197" stroke-miterlimit="10" stroke-linecap="round" stroke-linejoin="round"/>
<path d="M28.6289 98.0539L32.3931 80.8882" stroke="#C6C6C6" stroke-width="0.3197" stroke-miterlimit="10" stroke-linecap="round" stroke-linejoin="round"/>
<path d="M47.6533 61.9352L45.4336 62.8081L47.8983 68.1948L50.1181 67.3219L47.6533 61.9352Z" fill="#C6C6C6"/>
<path d="M48.0324 63.0389L46.1038 63.7977L44.8972 61.1615L41.0352 59.5888L43.6506 59.4241L45.4349 60.5797L46.517 59.2446L48.0324 59.1489L46.8119 60.3724L48.0324 63.0389Z" fill="#352E35"/>
<path d="M47.9081 61.4785L44.8398 62.6851L45.7261 64.6219L48.7943 63.4153L47.9081 61.4785Z" fill="#B4B4B4"/>
<path d="M95.0729 64.2315L91.5977 64.8052L92.8839 71.5017L96.3591 70.9281L95.0729 64.2315Z" fill="#7C5DA4"/>
<path d="M95.1588 65.0377L92.7456 65.4369C92.7456 65.4369 92.3264 63.3732 92.1034 62.0973C91.8811 60.8208 91.8339 60.0416 93.3546 59.4067C94.2577 59.0304 96.0792 58.269 97.4103 57.7138C98.32 57.3343 98.937 56.4299 98.8591 55.6648C98.7813 54.8998 98.6069 53.5147 98.5224 52.8601C98.4378 52.2049 97.9573 51.5608 96.4965 51.8107C95.0357 52.0606 89.7588 52.965 89.7588 52.965L88.7559 51.0123C88.7559 51.0123 94.0594 50.1196 96.3927 49.5847C98.7267 49.0498 100.591 50.1165 100.591 51.6398C100.591 53.1624 100.93 54.935 101.087 56.7704C101.244 58.6077 100.603 59.055 99.3596 59.5893C97.7677 60.2717 94.5053 61.6358 94.5053 61.6358L95.1588 65.0377Z" fill="#DADADA"/>
<path d="M93.1466 64.5554L91.5918 64.812L92.8779 71.508L94.4327 71.2513L93.1466 64.5554Z" fill="#EDEDED"/>
<path d="M94.8951 64.2331L94.4941 64.2993L95.782 70.9965L96.1829 70.9302L94.8951 64.2331Z" fill="#D8D0E8"/>
<path d="M94.3567 64.3433L94.1562 64.3765L95.4441 71.0736L95.6446 71.0405L94.3567 64.3433Z" fill="#D8D0E8"/>
<path d="M92.5878 64.6459L91.5957 64.8091L92.8775 71.5063L93.8696 71.3431L92.5878 64.6459Z" fill="#EDEDED"/>
<path d="M95.168 63.2731L91.0586 63.9526L91.5577 66.5468L95.6672 65.8673L95.168 63.2731Z" fill="#B4B4B4"/>
<path d="M63.8975 100.473L48.6504 66.8745" stroke="#7C5DA4" stroke-width="4.7952" stroke-miterlimit="10"/>
<path d="M26.9493 77.394C13.9064 77.394 3.33398 87.1957 3.33398 99.2863C3.33398 111.378 13.9064 121.179 26.9493 121.179C39.9922 121.179 50.5646 111.377 50.5646 99.2863C50.5646 87.1951 39.9915 77.394 26.9493 77.394ZM26.9493 118.418C15.5516 118.418 6.31152 109.852 6.31152 99.2863C6.31152 88.7202 15.5516 80.1543 26.9493 80.1543C38.347 80.1543 47.5864 88.7202 47.5864 99.2863C47.5864 109.852 38.347 118.418 26.9493 118.418Z" fill="#3E464C"/>
<path d="M3.47707 96.1872C5.1016 85.5187 14.9912 77.3113 26.9486 77.3113C39.2488 77.3113 49.3613 85.9969 50.5387 97.1127C50.5579 98.8285 52.9751 98.892 52.8573 97.8388C52.05 85.2238 40.7588 75.2241 26.948 75.2241C12.8256 75.2241 1.33875 85.6792 1 98.6952C1 98.6952 3.33731 98.8932 3.47707 96.1872Z" fill="#7C5DA4"/>
<path d="M26.9491 79.7603C15.3165 79.7603 5.88672 88.5026 5.88672 99.2859C5.88672 110.069 15.3165 118.811 26.9491 118.811C38.5811 118.811 48.0115 110.069 48.0115 99.2859C48.0115 88.5026 38.5811 79.7603 26.9491 79.7603ZM26.9491 117.76C15.9427 117.76 7.02077 109.489 7.02077 99.2859C7.02077 89.0832 15.9427 80.8116 26.9491 80.8116C37.9548 80.8116 46.8768 89.0832 46.8768 99.2859C46.8768 109.489 37.9548 117.76 26.9491 117.76Z" fill="#C6C6C6"/>
<path d="M63.896 93.4175C59.6933 93.4175 56.2852 96.5763 56.2852 100.473C56.2852 104.37 59.6926 107.528 63.896 107.528C68.0995 107.528 71.5063 104.37 71.5063 100.473C71.5063 96.5763 68.0995 93.4175 63.896 93.4175ZM66.8529 96.8792C66.1608 97.8411 64.9336 99.3107 63.8967 99.3107C62.8518 99.3107 61.6146 97.8201 60.9252 96.8576C60.5971 96.4005 60.9797 95.6972 61.2992 95.5528C62.0832 95.1956 62.965 94.9957 63.8967 94.9957C64.8178 94.9957 65.6896 95.1912 66.4669 95.5404C66.7957 95.6879 67.1897 96.411 66.8529 96.8792ZM57.9876 100.473C57.9876 99.5569 58.2305 98.6925 58.6604 97.9336C58.8008 97.6862 59.5176 97.4647 60.026 97.8226C61.0643 98.5549 62.6429 99.7808 62.6429 100.473C62.6429 101.144 61.1574 102.318 60.1205 103.056C59.5655 103.452 58.7017 103.109 58.5333 102.774C58.1832 102.073 57.9876 101.294 57.9876 100.473ZM61.1148 103.9C61.8669 102.945 63.0515 101.635 63.896 101.635C64.8011 101.635 66.0969 103.14 66.8323 104.101C67.1777 104.551 66.7511 105.282 66.3964 105.436C65.637 105.765 64.7898 105.95 63.896 105.95C63.1334 105.95 62.4059 105.816 61.7378 105.573C61.2559 105.396 60.6822 104.45 61.1148 103.9ZM67.7667 103.111C66.7285 102.367 65.1499 101.126 65.1499 100.473C65.1499 99.7901 66.8716 98.4685 67.9011 97.7393C68.3404 97.4277 69.0046 97.7041 69.1483 97.9632C69.5669 98.7153 69.8039 99.568 69.8039 100.472C69.8039 101.321 69.5956 102.125 69.2235 102.842C69.0631 103.153 68.2745 103.475 67.7667 103.111Z" fill="#C6C6C6"/>
<path d="M64.9761 100.473C64.9761 101.027 64.4916 101.476 63.8946 101.476C63.297 101.476 62.8125 101.027 62.8125 100.473C62.8125 99.9194 63.2963 99.4702 63.8946 99.4702C64.4923 99.4702 64.9761 99.9187 64.9761 100.473Z" fill="#8A8989"/>
<path d="M29.7793 97.0089C29.7793 97.0089 30.3184 97.0046 31.2608 96.9966C32.2025 96.9984 33.5475 97.0095 35.158 97.0472C35.964 97.057 36.8352 97.0971 37.7576 97.1237C38.68 97.1496 39.6516 97.1897 40.6566 97.2397C41.6608 97.2896 42.7004 97.3254 43.7539 97.3921C44.8074 97.455 45.8776 97.5198 46.9484 97.5839C48.0192 97.6407 49.0867 97.7351 50.1396 97.8085C51.1918 97.8869 52.2273 97.964 53.2296 98.0392C55.2321 98.2077 57.0949 98.4255 58.6848 98.6834C60.2774 98.9184 61.5958 99.2035 62.5182 99.4095C63.4393 99.6261 63.9631 99.7859 63.9631 99.7859C64.3644 99.9086 64.5827 100.31 64.4502 100.682C64.3564 100.946 64.1108 101.124 63.8333 101.162C63.8333 101.162 63.2882 101.235 62.3399 101.299C61.3928 101.354 60.0412 101.421 58.4293 101.396C56.8147 101.394 54.9393 101.308 52.9361 101.151C51.9351 101.063 50.9009 100.972 49.8501 100.88C48.7992 100.783 47.7304 100.704 46.6649 100.587C45.5987 100.478 44.5326 100.369 43.4837 100.262C42.4342 100.157 41.4033 100.025 40.405 99.9123C39.4067 99.7994 38.4424 99.6822 37.5286 99.5594C36.6155 99.4367 35.7504 99.3361 34.9544 99.2158C33.3605 98.9937 32.0348 98.7876 31.107 98.6377C30.18 98.4779 29.6502 98.3866 29.6502 98.3866C29.2442 98.3163 28.976 97.9541 29.0519 97.5778C29.1171 97.244 29.4286 97.012 29.7793 97.0089Z" fill="#7C5DA4"/>
<path d="M25.6639 98.4081C25.6639 98.4081 26.1271 98.0218 26.8619 97.2926C27.2346 96.9317 27.6665 96.4801 28.1556 95.9575C28.6441 95.4343 29.1785 94.8321 29.7462 94.1658C30.3099 93.4958 30.9129 92.7653 31.5305 91.9787C32.1494 91.1933 32.803 90.3647 33.4778 89.5078C34.8341 87.7982 36.2617 85.9602 37.6852 84.1205C40.535 80.4421 43.3468 76.7379 45.4106 73.9289C46.4428 72.5247 47.3027 71.3543 47.9043 70.535C48.4966 69.7089 48.8347 69.2369 48.8347 69.2369C49.3232 68.5558 50.3148 68.3707 51.0495 68.8235C51.7843 69.2764 51.9839 70.1957 51.4954 70.8768C51.4675 70.9163 51.4362 70.9551 51.4042 70.9915C51.4042 70.9915 51.0183 71.4308 50.3434 72.2008C49.6779 72.9769 48.7275 74.0856 47.5875 75.4158C45.3068 78.0767 42.3259 81.6656 39.3823 85.2797C37.9095 87.0862 36.4407 88.8951 35.0817 90.6035C34.3996 91.4555 33.74 92.2798 33.1144 93.0609C32.4875 93.8413 31.9138 94.5915 31.3914 95.2893C30.873 95.9902 30.4118 96.6417 30.0178 97.2297C29.6251 97.8182 29.2877 98.3346 29.0261 98.7715C28.4931 99.6377 28.2328 100.163 28.2328 100.163C27.8568 100.92 26.8892 101.252 26.0712 100.903C25.254 100.554 24.8966 99.6568 25.2726 98.8992C25.3684 98.7085 25.5069 98.5407 25.6639 98.4081Z" fill="#7C5DA4"/>
<path d="M24.9558 102.045C25.9201 102.54 26.5936 101.455 25.7504 100.935C25.1794 100.579 24.8034 99.9721 24.8034 99.2855C24.8034 98.1873 25.7637 97.2964 26.949 97.2964C28.1004 97.2964 29.0381 98.1391 29.0893 99.1954C29.0833 100.46 30.5249 100.485 30.5249 99.1824C30.4656 97.3963 28.8897 95.9644 26.949 95.9644C24.9704 95.9644 23.3672 97.4512 23.3672 99.2848C23.3672 100.435 23.9981 101.448 24.9558 102.045Z" fill="#7C5DA4"/>
<path d="M104.816 97.6424L108.393 80.4409" stroke="#C6C6C6" stroke-width="0.3197" stroke-miterlimit="10" stroke-linecap="round" stroke-linejoin="round"/>
<path d="M106.478 97.6424L102.902 80.4409" stroke="#C6C6C6" stroke-width="0.3197" stroke-miterlimit="10" stroke-linecap="round" stroke-linejoin="round"/>
<path d="M106.478 100.791L102.902 117.991" stroke="#C6C6C6" stroke-width="0.3197" stroke-miterlimit="10" stroke-linecap="round" stroke-linejoin="round"/>
<path d="M104.816 100.791L108.393 117.991" stroke="#C6C6C6" stroke-width="0.3197" stroke-miterlimit="10" stroke-linecap="round" stroke-linejoin="round"/>
<path d="M107.346 98.4468L125.9 101.762" stroke="#C6C6C6" stroke-width="0.3197" stroke-miterlimit="10" stroke-linecap="round" stroke-linejoin="round"/>
<path d="M107.346 99.9863L125.9 96.6714" stroke="#C6C6C6" stroke-width="0.3197" stroke-miterlimit="10" stroke-linecap="round" stroke-linejoin="round"/>
<path d="M103.95 99.9863L85.3945 96.6714" stroke="#C6C6C6" stroke-width="0.3197" stroke-miterlimit="10" stroke-linecap="round" stroke-linejoin="round"/>
<path d="M103.95 98.4468L85.3945 101.762" stroke="#C6C6C6" stroke-width="0.3197" stroke-miterlimit="10" stroke-linecap="round" stroke-linejoin="round"/>
<path d="M106.262 97.559L121.91 87.7407" stroke="#C6C6C6" stroke-width="0.3197" stroke-miterlimit="10" stroke-linecap="round" stroke-linejoin="round"/>
<path d="M107.436 98.6477L118.027 84.1411" stroke="#C6C6C6" stroke-width="0.3197" stroke-miterlimit="10" stroke-linecap="round" stroke-linejoin="round"/>
<path d="M105.034 100.875L89.3848 110.693" stroke="#C6C6C6" stroke-width="0.3197" stroke-miterlimit="10" stroke-linecap="round" stroke-linejoin="round"/>
<path d="M103.859 99.7856L93.2676 114.293" stroke="#C6C6C6" stroke-width="0.3197" stroke-miterlimit="10" stroke-linecap="round" stroke-linejoin="round"/>
<path d="M107.436 99.7856L118.027 114.293" stroke="#C6C6C6" stroke-width="0.3197" stroke-miterlimit="10" stroke-linecap="round" stroke-linejoin="round"/>
<path d="M106.262 100.875L121.91 110.693" stroke="#C6C6C6" stroke-width="0.3197" stroke-miterlimit="10" stroke-linecap="round" stroke-linejoin="round"/>
<path d="M103.859 98.6477L93.2676 84.1411" stroke="#C6C6C6" stroke-width="0.3197" stroke-miterlimit="10" stroke-linecap="round" stroke-linejoin="round"/>
<path d="M105.034 97.5587L89.3848 87.7397" stroke="#C6C6C6" stroke-width="0.3197" stroke-miterlimit="10" stroke-linecap="round" stroke-linejoin="round"/>
<path d="M106.914 97.9164L125.465 94.5854" stroke="#C6C6C6" stroke-width="0.3197" stroke-miterlimit="10" stroke-linecap="round" stroke-linejoin="round"/>
<path d="M107.533 99.3451L123.421 89.8618" stroke="#C6C6C6" stroke-width="0.3197" stroke-miterlimit="10" stroke-linecap="round" stroke-linejoin="round"/>
<path d="M104.379 100.517L85.8281 103.849" stroke="#C6C6C6" stroke-width="0.3197" stroke-miterlimit="10" stroke-linecap="round" stroke-linejoin="round"/>
<path d="M103.762 99.0884L87.875 108.572" stroke="#C6C6C6" stroke-width="0.3197" stroke-miterlimit="10" stroke-linecap="round" stroke-linejoin="round"/>
<path d="M107.049 100.391L110.643 117.589" stroke="#C6C6C6" stroke-width="0.3197" stroke-miterlimit="10" stroke-linecap="round" stroke-linejoin="round"/>
<path d="M105.508 100.965L115.738 115.693" stroke="#C6C6C6" stroke-width="0.3197" stroke-miterlimit="10" stroke-linecap="round" stroke-linejoin="round"/>
<path d="M104.243 98.0417L100.65 80.8433" stroke="#C6C6C6" stroke-width="0.3197" stroke-miterlimit="10" stroke-linecap="round" stroke-linejoin="round"/>
<path d="M105.785 97.4685L95.5547 82.7397" stroke="#C6C6C6" stroke-width="0.3197" stroke-miterlimit="10" stroke-linecap="round" stroke-linejoin="round"/>
<path d="M107.535 99.104L123.327 108.723" stroke="#C6C6C6" stroke-width="0.3197" stroke-miterlimit="10" stroke-linecap="round" stroke-linejoin="round"/>
<path d="M106.902 100.528L125.42 104.017" stroke="#C6C6C6" stroke-width="0.3197" stroke-miterlimit="10" stroke-linecap="round" stroke-linejoin="round"/>
<path d="M103.762 99.3279L87.9688 89.7095" stroke="#C6C6C6" stroke-width="0.3197" stroke-miterlimit="10" stroke-linecap="round" stroke-linejoin="round"/>
<path d="M104.394 97.9047L85.877 94.4146" stroke="#C6C6C6" stroke-width="0.3197" stroke-miterlimit="10" stroke-linecap="round" stroke-linejoin="round"/>
<path d="M105.767 100.965L95.3926 115.606" stroke="#C6C6C6" stroke-width="0.3197" stroke-miterlimit="10" stroke-linecap="round" stroke-linejoin="round"/>
<path d="M104.233 100.379L100.469 117.546" stroke="#C6C6C6" stroke-width="0.3197" stroke-miterlimit="10" stroke-linecap="round" stroke-linejoin="round"/>
<path d="M105.527 97.4678L115.903 82.8267" stroke="#C6C6C6" stroke-width="0.3197" stroke-miterlimit="10" stroke-linecap="round" stroke-linejoin="round"/>
<path d="M107.062 98.0539L110.826 80.8882" stroke="#C6C6C6" stroke-width="0.3197" stroke-miterlimit="10" stroke-linecap="round" stroke-linejoin="round"/>
<path d="M105.385 77.394C92.342 77.394 81.7695 87.1957 81.7695 99.2863C81.7695 111.378 92.3427 121.179 105.385 121.179C118.428 121.179 129.001 111.377 129.001 99.2863C129.001 87.1951 118.428 77.394 105.385 77.394ZM105.385 118.418C93.9872 118.418 84.7477 109.852 84.7477 99.2863C84.7477 88.7202 93.9872 80.1543 105.385 80.1543C116.783 80.1543 126.022 88.7202 126.022 99.2863C126.022 109.852 116.783 118.418 105.385 118.418Z" fill="#3E464C"/>
<path d="M81.9146 96.1869C83.5391 85.5184 93.4281 77.3109 105.385 77.3109C106.881 77.438 109.005 75.2959 105.385 75.2231C91.2631 75.2231 79.7769 85.6782 79.4375 98.6942C79.4375 98.6942 81.7741 98.8929 81.9146 96.1869Z" fill="#7C5DA4"/>
<path d="M105.383 79.7603C93.7501 79.7603 84.3203 88.5026 84.3203 99.2859C84.3203 110.069 93.7501 118.811 105.383 118.811C117.015 118.811 126.445 110.069 126.445 99.2859C126.445 88.5026 117.016 79.7603 105.383 79.7603ZM105.383 117.76C94.377 117.76 85.455 109.489 85.455 99.2859C85.455 89.0832 94.377 80.8116 105.383 80.8116C116.389 80.8116 125.311 89.0832 125.311 99.2859C125.311 109.489 116.389 117.76 105.383 117.76Z" fill="#C6C6C6"/>
<path d="M104.007 100.034C104.007 100.034 103.971 99.9236 103.902 99.7169C103.826 99.5059 103.718 99.2018 103.57 98.8322C103.424 98.4577 103.239 98.0123 103.012 97.507C102.899 97.2553 102.779 96.9875 102.652 96.7049C102.518 96.4267 102.376 96.1349 102.228 95.8301C101.927 95.2236 101.589 94.5715 101.23 93.8836C100.861 93.1994 100.496 92.4676 100.117 91.7106C99.7306 90.9573 99.3792 90.1577 98.9866 89.36C98.6172 88.5524 98.2359 87.7337 97.8772 86.9051C97.5377 86.0691 97.1597 85.2473 96.8409 84.4175C96.5215 83.5877 96.1787 82.7801 95.9132 81.9737C95.6324 81.1729 95.3295 80.4079 95.1133 79.6577C94.8943 78.9093 94.6321 78.2158 94.4617 77.5526C94.2827 76.8912 94.1183 76.2847 93.9732 75.7474C93.8335 75.2069 93.7576 74.7245 93.6624 74.3333C93.4861 73.5454 93.3849 73.0951 93.3849 73.0951C93.1866 72.2097 93.8002 71.3429 94.7552 71.159C95.7102 70.9752 96.6453 71.544 96.8443 72.4294C96.8609 72.5022 96.8716 72.575 96.8769 72.6478L96.8835 72.7496C96.8835 72.7496 96.9135 73.1722 96.9647 73.9119C96.9947 74.2821 97.022 74.7325 97.0898 75.2489C97.167 75.7653 97.2542 76.3483 97.3494 76.9838C97.4352 77.6223 97.6036 78.3059 97.7567 79.0327C97.8998 79.7613 98.1241 80.5183 98.3297 81.3068C98.5327 82.0959 98.8142 82.8961 99.0691 83.7173C99.3167 84.5409 99.6474 85.3566 99.9443 86.1814C100.258 87.0014 100.595 87.8151 100.921 88.6178C101.273 89.4118 101.61 90.1966 101.969 90.9438C102.323 91.6927 102.666 92.4177 103.012 93.0951C103.346 93.7787 103.703 94.4068 104.039 94.9824C104.38 95.5562 104.723 96.0658 105.039 96.5118C105.364 96.9511 105.648 97.3349 105.91 97.6316C106.162 97.9376 106.377 98.1604 106.523 98.3078C106.677 98.4583 106.76 98.5385 106.76 98.5385L106.763 98.5416C107.387 99.1506 107.359 100.112 106.703 100.691C106.046 101.268 105.008 101.243 104.385 100.635C104.207 100.46 104.079 100.249 104.007 100.034Z" fill="#7C5DA4"/>
<path d="M103.392 102.045C104.356 102.54 105.029 101.455 104.186 100.935C103.614 100.579 103.238 99.9721 103.238 99.2855C103.238 98.1873 104.199 97.2964 105.384 97.2964C106.536 97.2964 107.474 98.1391 107.524 99.1954C107.518 100.46 108.96 100.485 108.96 99.1824C108.901 97.3963 107.325 95.9644 105.384 95.9644C103.406 95.9644 101.803 97.4512 101.803 99.2848C101.803 100.435 102.434 101.448 103.392 102.045Z" fill="#7C5DA4"/>
<path d="M105.383 101.587C106.754 101.587 107.865 100.557 107.865 99.2861C107.865 98.0152 106.754 96.9849 105.383 96.9849C104.012 96.9849 102.9 98.0152 102.9 99.2861C102.9 100.557 104.012 101.587 105.383 101.587Z" fill="#B2B2B2"/>
<path d="M106.566 99.2853C106.566 99.8905 106.037 100.381 105.384 100.381C104.73 100.381 104.201 99.8905 104.201 99.2853C104.201 98.6794 104.731 98.189 105.384 98.189C106.037 98.189 106.566 98.6794 106.566 99.2853Z" fill="#8A8989"/>
<path d="M105.382 100.928C106.361 100.928 107.155 100.192 107.155 99.2847C107.155 98.377 106.361 97.6411 105.382 97.6411C104.403 97.6411 103.609 98.377 103.609 99.2847C103.609 100.192 104.403 100.928 105.382 100.928Z" stroke="#929292" stroke-width="0.6394" stroke-linecap="round" stroke-linejoin="round"/>
<path d="M52.799 57.1969C46.5604 57.1969 38.2347 54.3187 36.9043 56.3504C35.9793 57.762 38.4683 59.5888 40.397 59.5888C41.7573 59.5888 51.6969 58.9719 52.4848 58.9719C53.8711 58.9719 54.1859 57.1969 52.799 57.1969Z" fill="#621B11"/>
<path d="M96.379 68.9835L92.2695 69.6626L92.7684 72.2568L96.8778 71.5777L96.379 68.9835Z" fill="#B4B4B4"/>
<path d="M93.416 63.5571L91.0664 63.9458L91.5658 66.54L93.9154 66.1513L93.416 63.5571Z" fill="#EDEDED"/>
<path d="M92.2333 63.7463L91.0586 63.9409L91.5586 66.5349L92.7332 66.3403L92.2333 63.7463Z" fill="#EDEDED"/>
<path d="M94.3635 69.3174L92.2734 69.6626L92.772 72.2568L94.8621 71.9116L94.3635 69.3174Z" fill="#EDEDED"/>
<path d="M96.1651 69.0252L95.6797 69.106L96.1817 71.6996L96.6671 71.6189L96.1651 69.0252Z" fill="white"/>
<path d="M96.0494 71.7163L95.8325 71.7527L95.334 69.159L95.5509 69.1226L96.0494 71.7163Z" fill="white"/>
<path d="M93.2117 69.5062L92.2695 69.6616L92.7675 72.2558L93.7097 72.1004L93.2117 69.5062Z" fill="#EDEDED"/>
<path d="M94.9152 63.3061L94.4297 63.3862L94.9277 65.9804L95.4132 65.9003L94.9152 63.3061Z" fill="white"/>
<path d="M94.7975 66.0063L94.5805 66.0415L94.082 63.4478L94.299 63.4126L94.7975 66.0063Z" fill="white"/>
<path d="M94.3022 49.7546L86.6934 51.2358L87.2761 53.8085L94.885 52.3272L94.3022 49.7546Z" fill="#4F3030"/>
<path d="M94.2629 49.5359L93.3691 49.7095L94.0517 52.7307L94.9454 52.5572L94.2629 49.5359Z" fill="#583636"/>
<path d="M63.8249 93.3384C59.8125 93.3384 28.4119 96.4306 27.0735 96.4306C25.3711 96.4306 23.9922 97.7089 23.9922 99.2871C23.9922 100.865 25.3711 102.144 27.0735 102.144C28.4146 102.144 59.9556 107.746 63.8249 107.746C68.1162 107.746 71.5955 104.521 71.5955 100.542C71.5955 96.5638 68.1162 93.3384 63.8249 93.3384Z" stroke="#7E7E7D" stroke-width="0.959" stroke-linecap="round" stroke-linejoin="round"/>
<path d="M29.4309 99.2865C29.4309 100.557 28.3195 101.588 26.9492 101.588C25.5782 101.588 24.4668 100.557 24.4668 99.2865C24.4668 98.0156 25.5782 96.9858 26.9492 96.9858C28.3195 96.9858 29.4309 98.0156 29.4309 99.2865Z" fill="#B2B2B2"/>
<path d="M28.1302 99.2853C28.1302 99.8905 27.6011 100.381 26.9483 100.381C26.2954 100.381 25.7656 99.8905 25.7656 99.2853C25.7656 98.6794 26.2954 98.189 26.9483 98.189C27.6011 98.189 28.1302 98.6794 28.1302 99.2853Z" fill="#8A8989"/>
<path d="M28.7204 99.2847C28.7204 100.192 27.9271 100.928 26.9474 100.928C25.9678 100.928 25.1738 100.192 25.1738 99.2847C25.1738 98.3765 25.9678 97.6411 26.9474 97.6411C27.9271 97.6411 28.7204 98.3765 28.7204 99.2847Z" stroke="#929292" stroke-width="0.6394" stroke-linecap="round" stroke-linejoin="round"/>
<path d="M26.948 99.286L1 95.5386" stroke="#C6C6C6" stroke-width="0.959" stroke-miterlimit="10" stroke-linecap="round" stroke-linejoin="round"/>
<path d="M62.4536 103.172C58.9803 108.082 57.5135 109.857 57.1135 109.614C56.7128 109.37 59.0501 105.766 61.3562 102.505C62.3591 101.087 63.4166 100.087 63.7201 100.271C64.0236 100.455 63.4559 101.754 62.4536 103.172Z" fill="#8E8E8D"/>
<path d="M60.3408 109.052C60.3621 109.484 60.0014 109.85 59.5355 109.869L55.412 110.042C54.9461 110.061 54.5508 109.726 54.5301 109.295C54.5095 108.863 54.8702 108.497 55.3361 108.478L59.4603 108.305C59.9248 108.286 60.3195 108.62 60.3408 109.052Z" fill="#8A8989"/>
<path d="M59.7631 108.724C59.7684 108.835 59.6746 108.93 59.5534 108.935L55.3028 109.11C55.181 109.115 55.0785 109.029 55.0725 108.919C55.0672 108.807 55.1617 108.713 55.2821 108.707L59.5335 108.531C59.6546 108.526 59.7577 108.612 59.7631 108.724Z" fill="#5C5C5B"/>
<path d="M56.9773 109.443C56.9826 109.555 56.8888 109.649 56.7677 109.655L55.5977 109.703C55.4759 109.708 55.3734 109.622 55.3674 109.51C55.3621 109.399 55.4559 109.304 55.577 109.3L56.7477 109.251C56.8688 109.246 56.972 109.332 56.9773 109.443Z" fill="#5C5C5B"/>
<path d="M57.7284 109.412C57.7351 109.559 57.6113 109.683 57.4516 109.69C57.2912 109.697 57.1554 109.583 57.1487 109.436C57.1414 109.289 57.2652 109.164 57.4256 109.158C57.5853 109.151 57.7211 109.265 57.7284 109.412Z" fill="#5C5C5B"/>
<path d="M59.5066 109.338C59.5126 109.45 59.4181 109.544 59.297 109.549L58.127 109.598C58.0052 109.602 57.9027 109.516 57.8967 109.405C57.8914 109.294 57.9852 109.199 58.1063 109.194L59.277 109.145C59.3981 109.141 59.5013 109.226 59.5066 109.338Z" fill="#5C5C5B"/>
<path d="M82.0571 39.9451C80.9038 40.9587 80.1837 39.1443 78.9718 38.9388C77.3985 38.6723 76.5712 40.2301 75.7812 38.3083C75.7812 36.8356 77.7352 36.3402 78.9431 36.4407C80.7327 36.59 82.6607 39.4139 82.0571 39.9451Z" fill="#F9BB8D"/>
<path d="M55.8202 24.6675C55.8202 24.6675 55.8229 24.6891 55.8289 24.731C55.8349 24.768 55.8435 24.8217 55.8549 24.8927C55.8841 25.0555 55.9347 25.3085 56.0199 25.6349C56.185 26.287 56.4931 27.2285 57.0049 28.3069C57.5286 29.378 58.26 30.5866 59.2703 31.7206C59.7674 32.2931 60.3365 32.8428 60.9621 33.3537C61.5783 33.8769 62.2745 34.3334 62.9912 34.7647C63.3533 34.9751 63.7306 35.1638 64.104 35.3582C64.4933 35.5248 64.8687 35.716 65.2646 35.8635C66.05 36.1713 66.8499 36.428 67.6432 36.631C68.0438 36.7211 68.4332 36.829 68.8245 36.9012C69.2172 36.9697 69.6025 37.0376 69.9759 37.1036C70.7352 37.1906 71.452 37.3016 72.1268 37.3257C72.4629 37.3467 72.7857 37.3664 73.0925 37.3855C73.4013 37.3886 73.6941 37.3923 73.969 37.3948C74.52 37.4047 75.0012 37.4053 75.3985 37.38C76.1938 37.3479 76.6484 37.3294 76.6484 37.3294L76.8673 39.3487C76.8673 39.3487 76.3861 39.3956 75.5449 39.4764C75.1243 39.5258 74.6099 39.5548 74.0176 39.5782C73.7214 39.5912 73.4059 39.6047 73.0732 39.6195C72.7391 39.6177 72.3877 39.6158 72.021 39.614C71.2869 39.6269 70.489 39.5523 69.6444 39.5005C69.2225 39.4505 68.7886 39.3993 68.3453 39.3468C67.9021 39.2901 67.4529 39.1945 66.993 39.1167C66.0772 38.936 65.1382 38.6941 64.2005 38.3862C63.7293 38.2388 63.2707 38.0426 62.8009 37.8692C62.3443 37.6662 61.8825 37.4651 61.4339 37.2387C60.5441 36.7741 59.6709 36.267 58.881 35.6778C58.0817 35.1003 57.3456 34.4691 56.6941 33.8071C55.373 32.4936 54.3874 31.0765 53.668 29.8111C52.9598 28.5371 52.5099 27.4123 52.2444 26.5967C52.1086 26.1901 52.0195 25.8588 51.9602 25.6225C51.9309 25.493 51.9077 25.3936 51.8923 25.327C51.8797 25.2647 51.873 25.2332 51.873 25.2332L55.8202 24.6675Z" fill="#F9BB8D"/>
<path d="M58.0139 28.9133C58.0139 28.9133 55.9681 23.5136 55.3592 22.4821C53.7992 19.8384 51.2363 20.4504 50.4636 20.9187C49.3063 21.6202 48.9023 24.1503 51.4692 27.5054C52.2026 28.4648 53.899 31.2775 53.899 31.2775L58.0139 28.9133Z" fill="#C6C6C6"/>
<path d="M51.4759 49.2319C51.4759 49.2319 52.2199 49.467 53.521 49.8779C54.1726 50.0846 55.0124 50.3776 55.9475 50.691C56.8792 51.0347 57.9221 51.3864 59.0575 51.8577C59.6252 52.0854 60.2161 52.3167 60.8238 52.5956C61.4327 52.8621 62.061 53.1391 62.7005 53.4668C63.9837 54.0806 65.3207 54.8469 66.6537 55.7594C67.9828 56.6694 69.3052 57.8194 70.3926 59.2353C71.4881 60.6433 72.2647 62.3461 72.6035 64.031C72.9589 65.7196 72.9608 67.3626 72.8377 68.9013C72.7153 70.4455 72.4424 71.8905 72.1642 73.2718C71.5879 76.0266 70.919 78.5018 70.3786 80.6285C69.2745 84.8695 68.641 87.6964 68.641 87.6964L66.0008 87.2719C66.0008 87.2719 66.4201 84.3568 67.1935 80.0368C67.5675 77.8787 68.0387 75.367 68.3781 72.7277C68.7102 70.1044 68.9072 67.2867 68.219 64.9657C67.8836 63.8052 67.3139 62.8039 66.5286 61.9346C65.746 61.0653 64.7703 60.3089 63.6762 59.674C62.5841 59.0398 61.4494 58.4796 60.292 58.0243C59.729 57.7824 59.1533 57.5751 58.5956 57.3758C58.0472 57.1673 57.4915 56.9933 56.9624 56.8224C55.9162 56.4683 54.9026 56.203 54.0335 55.9469C53.1463 55.7162 52.4069 55.5101 51.7427 55.3485C50.4124 55.0258 49.6523 54.8407 49.6523 54.8407L51.4759 49.2319Z" fill="#F9BB8D"/>
<path d="M57.4178 57.9537L46.7441 56.4564L52.658 47.9966L59.5062 51.7823L57.4178 57.9537Z" fill="#323A3E"/>
<path d="M68.9869 86.8294C69.2997 87.4167 72.403 88.5032 75.1217 88.9024C76.5818 89.1171 76.7861 91.3974 74.6232 91.7324C72.2866 92.0939 68.179 91.9952 65.7312 91.5763C64.512 91.3677 64.3928 88.0244 66.0666 86.6782L68.9869 86.8294Z" fill="#443836"/>
<path d="M48.1865 58.0033C44.3837 58.7455 40.6096 58.1631 39.1128 54.3947C37.2567 49.72 39.2679 44.3191 41.8688 42.3233C44.4703 40.3268 54.0797 46.7993 54.0797 46.7993L53.5127 53.2811C53.5127 53.2811 53.6784 56.4128 48.1865 58.0033Z" fill="#454F56"/>
<path d="M54.7486 22.3005C54.0138 20.9056 52.8352 20.1523 52.8352 20.1523L47.5723 19.6587C47.5723 19.6587 46.4023 19.6488 45.1052 20.681C42.2987 22.915 41.4415 30.3105 41.0342 35.0124C40.6868 39.0288 39.6838 42.5332 40.2988 44.0558C47.4345 47.9994 53.2392 47.1011 54.079 46.7994C55.3741 46.3343 54.0544 38.6741 55.3528 33.3812C56.6772 27.9809 55.6417 23.9959 54.7486 22.3005Z" fill="#E9E9E9"/>
<path d="M50.3745 58.7544C50.3745 58.7544 50.449 58.9302 50.5894 59.2591C50.7451 59.6181 50.9215 60.0864 51.1618 60.6997C51.3787 61.308 51.6616 62.0459 51.9358 62.8936C52.2293 63.7394 52.5194 64.6982 52.8369 65.7433C53.1397 66.7909 53.4618 67.9255 53.7659 69.1311C54.0641 70.3378 54.3835 71.6082 54.6498 72.9322C54.9486 74.2506 55.1915 75.6227 55.4397 77.0146C55.7066 78.404 55.8697 79.8298 56.0906 81.2457C56.2776 82.666 56.414 84.0911 56.5751 85.4892C56.6803 86.8915 56.7841 88.2711 56.8839 89.6062C56.9531 90.9419 56.9831 92.235 57.0303 93.4585C57.0962 94.6813 57.0396 95.8412 57.0503 96.9079C57.035 97.9759 57.0643 98.9531 57.005 99.82C56.9644 100.686 56.9292 101.441 56.9005 102.063C56.8426 103.305 56.8094 104.014 56.8094 104.014L54.098 103.941C54.098 103.941 54.0787 103.245 54.0455 102.027C54.0288 101.419 54.0089 100.68 53.9856 99.8323C53.9816 98.9852 53.8811 98.0314 53.8192 96.9912C53.732 95.9516 53.7047 94.8238 53.5516 93.6374C53.4165 92.451 53.2954 91.1985 53.133 89.9085C52.94 88.6221 52.741 87.2926 52.5387 85.942C52.2818 84.5995 52.0496 83.233 51.7681 81.8763C51.4533 80.5245 51.197 79.1641 50.8403 77.8456C50.5029 76.5235 50.1741 75.2242 49.7948 73.9822C49.4467 72.7323 49.0521 71.5422 48.684 70.4125C48.31 69.2853 47.9247 68.2303 47.5673 67.2611C47.1946 66.2967 46.8558 65.4126 46.5251 64.6451C46.2103 63.8684 45.9022 63.2156 45.6626 62.6696C45.4097 62.1409 45.2093 61.7084 45.0802 61.4635C44.9385 61.1877 44.8633 61.0409 44.8633 61.0409L50.3745 58.7544Z" fill="#F9BB8D"/>
<path d="M56.991 103.361C57.3038 103.949 60.5342 104.994 63.2529 105.394C64.713 105.609 64.9174 107.889 62.7544 108.224C60.4178 108.585 56.3102 108.487 53.8624 108.068C52.6425 107.86 52.8109 104.517 54.09 103.118L56.991 103.361Z" fill="#443836"/>
<path d="M45.9599 64.5418L39.6621 55.4102L50.4728 54.3237L52.1739 61.9191L45.9599 64.5418Z" fill="#454F56"/>
<path d="M72.6316 43.0963C71.7032 44.2926 70.6291 42.636 69.3972 42.6453C67.798 42.657 67.3001 44.3308 66.1362 42.5805C65.8373 41.1343 67.6575 40.307 68.8628 40.196C70.651 40.0312 73.1161 42.4695 72.6316 43.0963Z" fill="#F9BB8D"/>
<path d="M48.31 27.0454C48.31 27.0454 48.3153 27.1343 48.3246 27.3002C48.3386 27.4804 48.3632 27.7549 48.4091 28.1072C48.5016 28.8112 48.674 29.831 49.0168 31.0143C49.3595 32.1958 49.8759 33.5457 50.6632 34.8376C51.4466 36.1296 52.5174 37.3499 53.8551 38.2278L53.917 38.2698L53.9476 38.2914L53.9629 38.3019L53.9709 38.3068C53.9523 38.2963 54.0235 38.3377 53.931 38.2852L54.0827 38.3747C54.1765 38.4284 54.3003 38.5073 54.3695 38.54C54.5126 38.6122 54.653 38.6906 54.8494 38.7732C55.2101 38.938 55.6067 39.0805 56.0087 39.2113C56.8186 39.4698 57.6679 39.6721 58.5044 39.8375C60.1822 40.1663 61.81 40.3527 63.2076 40.4779C64.6072 40.6013 65.7832 40.6593 66.6045 40.6908C67.4184 40.7117 67.8829 40.7241 67.8829 40.7241L67.9421 42.7533C67.9421 42.7533 67.4497 42.7705 66.5891 42.8001C65.7353 42.8193 64.5187 42.8328 63.0526 42.7921C61.5858 42.7496 59.8714 42.6601 58.0133 42.4127C57.0842 42.2868 56.1185 42.1209 55.1256 41.8698C54.6284 41.7408 54.1253 41.5958 53.6142 41.4021C53.3693 41.3164 53.0851 41.1923 52.8022 41.0622C52.6572 40.9968 52.5813 40.9523 52.4675 40.8956L52.3104 40.816L52.0915 40.6852C50.228 39.5981 48.7459 38.06 47.6844 36.5071C46.6142 34.9481 45.9174 33.3748 45.4349 32.0107C44.9544 30.6435 44.6869 29.4762 44.5298 28.6458C44.4513 28.2306 44.4014 27.8987 44.3701 27.6648C44.3408 27.4168 44.3262 27.2842 44.3262 27.2842L48.31 27.0454Z" fill="#F9BB8D"/>
<path d="M49.8231 30.7647C49.8231 30.7647 49.8271 25.0417 49.6221 23.8806C49.0976 20.9069 46.4609 20.6946 45.5637 20.8988C44.2207 21.2042 42.9329 23.4666 44.1528 27.4214C44.5009 28.5522 45.0939 31.7271 45.0939 31.7271L49.8231 30.7647Z" fill="#C6C6C6"/>
<path d="M61.493 6.31908C61.6547 7.69553 61.4777 12.9051 60.902 15.1373C60.5439 16.5261 59.3107 18.9995 56.6633 19.4011C54.9076 19.6677 53.3676 18.7515 53.3676 18.7515L52.8365 20.1526C52.8365 20.1526 54.0085 22.0152 51.6393 22.0979C49.27 22.1806 47.5736 19.6584 47.5736 19.6584C47.5736 19.6584 48.2092 19.6553 48.7529 19.6843C48.9552 19.3407 49.2188 18.4782 49.3605 17.6008C45.7275 15.9246 47.5091 9.22744 47.5091 9.22744C47.5091 9.22744 51.9188 5.58367 55.3981 4.70696C58.8761 3.83088 61.4231 5.72063 61.493 6.31908Z" fill="#F9BB8D"/>
<path d="M49.2318 18.0977C49.5592 17.2167 49.9772 16.2814 49.6611 14.9463C49.3123 14.9179 48.3653 14.4373 48.0392 13.5933C47.592 12.4365 48.3314 10.4017 49.2651 10.3993C51.5299 10.398 51.2457 13.1978 51.2457 13.1978C51.2457 13.1978 52.8502 12.8881 51.3528 9.14005C50.9449 8.11959 51.255 6.48218 53.37 6.02686C54.3337 5.81956 55.6714 6.96341 57.4863 7.04423C59.0575 7.11395 60.0312 6.23169 60.6302 6.60495C61.4035 7.08803 61.5499 8.22633 61.5499 8.22633C61.5499 8.22633 63.5545 6.9523 63.5545 4.4789C63.5545 2.00489 57.0517 0.61549 53.4053 0.684589C48.5516 0.7759 45.6014 3.28138 44.9059 7.49399C44.0321 11.0779 47.9946 17.6041 49.2318 18.0977Z" fill="#683C11"/>
<path d="M59.7562 9.6228C60.262 9.41437 60.9295 9.69799 61.1698 9.89848C61.3681 10.0641 61.4633 9.9217 61.3122 9.77439C60.9022 9.3728 60.2207 9.1173 59.8201 9.14175C59.5466 9.15825 59.5399 9.71205 59.7562 9.6228Z" fill="#683C11"/>
<path d="M59.5285 15.3302C59.3855 16.3217 58.7159 17.0558 58.0338 16.9713C57.3523 16.8862 56.9144 16.0138 57.0588 15.0229L59.5285 15.3302Z" fill="white"/>
<path d="M59.3357 13.1149C59.2266 13.4986 58.2988 13.5424 58.2988 13.5424C58.2988 13.5424 59.5999 13.7917 59.7403 13.1716C59.8695 12.6016 58.9164 12.3511 58.9164 12.3511C58.9164 12.3511 59.4775 12.617 59.3357 13.1149Z" fill="#D99A71"/>
<path d="M60.8743 11.0568C60.8843 11.3031 60.6753 11.5097 60.4078 11.5189C60.1402 11.5281 59.9146 11.3362 59.9046 11.0904C59.8947 10.8441 60.1036 10.6375 60.3718 10.6277C60.6387 10.6192 60.8643 10.8111 60.8743 11.0568Z" fill="#683C11"/>
<path d="M56.3518 9.74612C55.8307 9.57152 55.1878 9.90344 54.9655 10.1218C54.7812 10.3026 54.6747 10.1657 54.8131 10.0071C55.1892 9.57399 55.8474 9.26982 56.2493 9.26612C56.5229 9.26365 56.5748 9.82077 56.3518 9.74612Z" fill="#683C11"/>
<path d="M55.3539 11.25C55.3638 11.4964 55.5895 11.6877 55.857 11.6785C56.1252 11.6693 56.3342 11.4621 56.3242 11.2164C56.3142 10.9707 56.0886 10.7787 55.8211 10.7879C55.5528 10.7971 55.3439 11.0037 55.3539 11.25Z" fill="#683C11"/>
<path d="M57.485 13.0207C57.4989 13.3625 56.8301 13.6636 55.9902 13.6926C55.151 13.7222 54.4595 13.4687 54.4455 13.1269C54.4316 12.7851 55.1004 12.484 55.9403 12.455C56.7795 12.4254 57.471 12.6789 57.485 13.0207Z" fill="#E1B297"/>
<path d="M61.1971 13.5068C60.3579 13.5364 59.7603 13.2835 59.7463 12.9417C59.7323 12.5999 60.497 12.2957 61.3362 12.2661L61.1971 13.5068Z" fill="#E1B297"/>
</svg>
