<svg width="79" height="78" viewBox="0 0 79 78" fill="none" xmlns="http://www.w3.org/2000/svg">
<rect x="0.5" width="78" height="78" rx="39" fill="#5689CE"/>
<path d="M22.2955 43.6095C22.17 43.6095 22.0463 43.5798 21.9346 43.5228L15.9275 40.4286C15.7423 40.3333 15.6023 40.1685 15.5382 39.9703C15.4741 39.7721 15.4911 39.5566 15.5854 39.3709L22.6423 25.4322C22.6891 25.3396 22.7538 25.2573 22.8326 25.1897C22.9113 25.1222 23.0026 25.0709 23.1013 25.0388C23.1999 25.0066 23.3039 24.9943 23.4073 25.0024C23.5107 25.0106 23.6115 25.039 23.7039 25.0862L29.4186 28.0023C29.602 28.0956 29.7417 28.2571 29.8077 28.4521C29.8737 28.6471 29.8607 28.8602 29.7716 29.0457L23.0064 43.1594C22.9607 43.2544 22.8965 43.3392 22.8176 43.409C22.7387 43.4788 22.6467 43.5322 22.5469 43.5661C22.4659 43.5937 22.3811 43.6084 22.2955 43.6095ZM17.3453 39.3851L21.9353 41.7495L28.0181 29.0607L23.6913 26.854L17.3453 39.3851Z" fill="white"/>
<path d="M30.4617 32.6419C30.3261 32.6419 30.1928 32.6069 30.0747 32.5403L27.7844 31.2501C27.6942 31.1994 27.6149 31.1313 27.551 31.0499C27.4871 30.9685 27.4398 30.8753 27.412 30.7756C27.3841 30.6759 27.3761 30.5717 27.3885 30.469C27.4009 30.3662 27.4334 30.2669 27.4841 30.1767C27.5349 30.0865 27.6029 30.0072 27.6843 29.9433C27.7658 29.8794 27.859 29.8321 27.9586 29.8042C28.0583 29.7764 28.1625 29.7684 28.2653 29.7808C28.368 29.7932 28.4674 29.8257 28.5575 29.8764L30.449 30.9412C31.1875 30.4935 32.7858 29.5296 33.8088 28.952C35.4788 28.0062 36.6547 28.1362 38.0048 29.4154C38.1526 29.56 38.2376 29.7569 38.2416 29.9637C38.2455 30.1704 38.168 30.3704 38.0258 30.5206C37.8836 30.6707 37.6881 30.759 37.4815 30.7663C37.2748 30.7736 37.0736 30.6994 36.9211 30.5597C36.0825 29.7653 35.6459 29.7243 34.5843 30.3233C33.2697 31.0665 30.8983 32.5119 30.8738 32.53C30.7494 32.6046 30.6067 32.6433 30.4617 32.6419Z" fill="white"/>
<path d="M51.1918 46.3545C50.6175 46.3692 50.051 46.2197 49.5588 45.9234C48.8337 45.4395 45.6434 42.3106 45.0113 41.6888C44.872 41.5405 44.7954 41.344 44.7977 41.1405C44.7999 40.937 44.8808 40.7422 45.0234 40.597C45.1659 40.4518 45.3592 40.3674 45.5626 40.3614C45.766 40.3554 45.9639 40.4283 46.1147 40.5649C47.5333 41.9654 49.9671 44.3022 50.4313 44.6119C50.7305 44.7502 51.0614 44.8053 51.3892 44.7714C51.7171 44.7376 52.0297 44.6161 52.2944 44.4196C52.4183 44.3122 52.5171 44.1788 52.5839 44.0289C52.6506 43.8791 52.6837 43.7164 52.6806 43.5524C52.6776 43.3884 52.6387 43.2271 52.5665 43.0798C52.4943 42.9325 52.3906 42.8028 52.2629 42.7C51.4574 41.7936 48.111 38.5741 47.3765 37.868C44.8135 36.9285 42.328 35.7896 39.9429 34.4617L39.1138 35.0039C38.9277 35.868 38.4311 36.6338 37.7181 37.1563C37.4678 37.3534 37.1773 37.4932 36.867 37.5656C36.5568 37.6381 36.2344 37.6415 35.9227 37.5756C35.5445 37.5284 35.1803 37.4029 34.8533 37.2069C34.5264 37.0109 34.244 36.7489 34.0241 36.4375C33.605 35.5421 33.558 34.517 33.8933 33.5869C34.5656 30.8962 35.6563 30.2035 37.1656 29.2451L37.4974 29.0331C39.1603 27.9652 40.5876 27.3962 42.1544 28.1016C43.1285 28.5405 46.586 29.8796 47.568 30.2594L50.8592 29.1805C51.0564 29.1205 51.2692 29.1402 51.452 29.2352C51.6349 29.3303 51.7732 29.4932 51.8374 29.689C51.9016 29.8848 51.8866 30.098 51.7955 30.2828C51.7044 30.4677 51.5446 30.6095 51.3502 30.6779L47.7918 31.8444C47.6196 31.9006 47.4332 31.8961 47.2638 31.8317C47.077 31.7592 42.6809 30.0679 41.5105 29.5399C40.8083 29.2246 40.0667 29.2569 38.3517 30.3587L38.0128 30.5755C36.636 31.4495 35.9448 31.8893 35.4246 33.9691C35.1582 35.0347 35.2812 35.4666 35.3781 35.6242C35.5027 35.8323 35.7911 35.9166 36.2506 36.0316C36.3492 36.0483 36.4503 36.0427 36.5465 36.0155C36.6428 35.9882 36.7317 35.9399 36.807 35.874C37.0293 35.7065 37.2149 35.4953 37.3525 35.2534C37.4901 35.0114 37.5767 34.7439 37.6069 34.4672C37.6172 34.3484 37.6544 34.2335 37.7155 34.1311C37.7767 34.0287 37.8603 33.9415 37.96 33.8761L39.4772 32.8839C39.5967 32.8061 39.7352 32.7623 39.8777 32.757C40.0203 32.7517 40.1616 32.7852 40.2866 32.8539C40.3401 32.8831 45.6537 35.7889 47.981 36.4005C48.1104 36.435 48.229 36.5014 48.3262 36.5936C48.4964 36.7567 52.5032 40.5933 53.4443 41.6549C53.705 41.9073 53.9118 42.21 54.052 42.5447C54.1922 42.8794 54.263 43.2391 54.2601 43.602C54.2571 43.9649 54.1805 44.3234 54.0349 44.6558C53.8892 44.9882 53.6775 45.2875 53.4127 45.5356C52.8063 46.0858 52.0102 46.3793 51.1918 46.3545Z" fill="white"/>
<path d="M52.8579 42.9649C52.6773 42.9648 52.5022 42.9026 52.362 42.7889C52.2217 42.6751 52.1248 42.5166 52.0874 42.34C52.05 42.1633 52.0744 41.9791 52.1566 41.8183C52.2387 41.6575 52.3736 41.5297 52.5387 41.4565L55.3034 40.2317C55.3984 40.1868 55.5015 40.1614 55.6065 40.157C55.7115 40.1525 55.8163 40.1691 55.9148 40.2057C56.0133 40.2424 56.1035 40.2984 56.18 40.3704C56.2566 40.4424 56.3179 40.529 56.3605 40.6251C56.4031 40.7212 56.426 40.8248 56.4279 40.9299C56.4299 41.035 56.4108 41.1394 56.3718 41.2369C56.3327 41.3345 56.2746 41.4233 56.2008 41.4981C56.1269 41.5729 56.0389 41.6321 55.9418 41.6724L53.1763 42.9003C53.0758 42.9437 52.9673 42.9657 52.8579 42.9649Z" fill="white"/>
<path d="M56.4711 43.6095C56.314 43.6094 56.1605 43.5624 56.0303 43.4745C55.9002 43.3866 55.7992 43.2618 55.7405 43.1161L49.7917 28.3577C49.752 28.2593 49.7325 28.1539 49.7345 28.0477C49.7365 27.9416 49.7599 27.837 49.8033 27.7401C49.8468 27.6433 49.9093 27.5562 49.9872 27.4841C50.0651 27.412 50.1568 27.3564 50.2567 27.3206L56.6137 25.046C56.806 24.9773 57.0175 24.9858 57.2037 25.0699C57.3898 25.154 57.536 25.3071 57.6115 25.4969L63.4436 40.1354C63.4818 40.2322 63.5004 40.3356 63.4984 40.4396C63.4964 40.5436 63.4738 40.6462 63.432 40.7414C63.3901 40.8367 63.3299 40.9227 63.2546 40.9945C63.1794 41.0664 63.0907 41.1226 62.9936 41.16L56.7532 43.5543C56.6634 43.5898 56.5677 43.6085 56.4711 43.6095ZM51.5579 28.528L56.9101 41.8055L61.6814 39.977L56.4285 26.7862L51.5579 28.528ZM47.6425 48.7449C46.9928 48.7644 46.3584 48.5461 45.8582 48.1309C44.8029 47.1931 42.0902 44.4819 41.9751 44.3669C41.8316 44.2182 41.7521 44.0191 41.7539 43.8125C41.7557 43.6059 41.8386 43.4082 41.9847 43.2621C42.1309 43.1159 42.3285 43.033 42.5352 43.0313C42.7418 43.0295 42.9409 43.1089 43.0895 43.2525C43.1171 43.28 45.885 46.0464 46.9048 46.9566C47.1162 47.0854 47.3556 47.1613 47.6026 47.1777C47.8495 47.1942 48.0969 47.1508 48.3235 47.0512C48.6935 46.925 49.0219 46.6995 49.2726 46.3995C49.5233 46.0994 49.6868 45.7363 49.7452 45.3497C49.7628 45.2477 49.8003 45.1501 49.8556 45.0626C49.9109 44.9751 49.9829 44.8994 50.0675 44.8397C50.152 44.78 50.2475 44.7376 50.3485 44.7148C50.4495 44.692 50.5539 44.6893 50.6559 44.7069C50.7579 44.7245 50.8554 44.762 50.9429 44.8173C51.0304 44.8726 51.1062 44.9446 51.1659 45.0292C51.2256 45.1137 51.268 45.2092 51.2908 45.3102C51.3136 45.4112 51.3162 45.5156 51.2986 45.6176C51.1915 46.2797 50.907 46.9004 50.4755 47.4139C50.0439 47.9273 49.4814 48.3142 48.8476 48.5337C48.4605 48.671 48.0532 48.7424 47.6425 48.7449Z" fill="white"/>
<path d="M43.9718 50.6552C43.3235 50.6829 42.6899 50.4567 42.2057 50.0247L39.4062 47.2253L40.5214 46.1101L43.3209 48.9095C43.4941 49.0068 43.6858 49.0666 43.8836 49.0851C44.0814 49.1035 44.2809 49.0802 44.4691 49.0167C44.8307 48.9279 45.1617 48.7437 45.4276 48.4831C45.6936 48.2226 45.8846 47.8954 45.9808 47.5358C46.0099 47.4355 46.0587 47.342 46.1243 47.2607C46.1899 47.1794 46.2711 47.112 46.363 47.0623C46.4549 47.0126 46.5558 46.9817 46.6597 46.9714C46.7637 46.9611 46.8687 46.9716 46.9685 47.0022C47.0684 47.0328 47.1612 47.0829 47.2415 47.1497C47.3219 47.2165 47.3881 47.2987 47.4364 47.3913C47.4847 47.4839 47.5141 47.5852 47.5229 47.6893C47.5317 47.7934 47.5197 47.8982 47.4877 47.9977C47.2684 48.7614 46.8072 49.4334 46.1733 49.9126C45.5395 50.3919 44.7665 50.6524 43.9718 50.6552Z" fill="white"/>
<path d="M40.9745 52.7603C40.3302 52.774 39.7002 52.5699 39.1863 52.181C38.4763 51.6126 37.763 51.0483 37.0465 50.4881C36.9633 50.425 36.8934 50.346 36.8409 50.2557C36.7885 50.1653 36.7545 50.0654 36.741 49.9619C36.7275 49.8583 36.7347 49.753 36.7622 49.6522C36.7898 49.5515 36.8371 49.4572 36.9014 49.3748C36.9657 49.2925 37.0457 49.2238 37.1368 49.1726C37.228 49.1215 37.3283 49.089 37.4321 49.077C37.5359 49.0651 37.641 49.0738 37.7414 49.1028C37.8417 49.1319 37.9353 49.1805 38.0167 49.2461C38.0167 49.2461 39.0011 50.0145 40.1714 50.9508C40.4208 51.0992 40.7044 51.1803 40.9945 51.1863C41.2846 51.1922 41.5713 51.1227 41.8265 50.9847C42.0547 50.8865 42.2478 50.7216 42.3803 50.5115C42.5128 50.3015 42.5786 50.0562 42.5689 49.808C42.5625 49.5991 42.6394 49.3962 42.7826 49.2439C42.9259 49.0917 43.1237 49.0026 43.3326 48.9962C43.5409 48.9925 43.7424 49.0704 43.8941 49.2133C44.0457 49.3561 44.1356 49.5525 44.1444 49.7607C44.1629 50.3097 44.0199 50.852 43.7329 51.3204C43.446 51.7888 43.0278 52.1626 42.5303 52.3954C42.0466 52.6348 41.5143 52.7597 40.9745 52.7603Z" fill="white"/>
<path d="M35.0615 52.3954C34.8054 52.3945 34.5519 52.3436 34.3152 52.2456C33.6725 51.9303 33.1427 51.4245 32.798 50.7971C32.2387 50.9056 31.6591 50.8185 31.1564 50.5504C30.7347 50.274 30.3722 49.9165 30.0899 49.4987C29.8077 49.0808 29.6114 48.6111 29.5124 48.1167C29.4708 47.9154 29.5096 47.7058 29.6203 47.5327C30.2611 46.5333 31.2273 44.9799 31.3715 44.656C31.5013 44.3976 31.6854 44.1703 31.9112 43.9896C32.137 43.809 32.3992 43.6793 32.6798 43.6094C33.0615 43.5094 33.4607 43.496 33.8483 43.5701C34.2358 43.6443 34.6019 43.8042 34.9197 44.0381C35.2718 44.2713 35.5546 44.595 35.7382 44.9753C35.9219 45.3556 35.9996 45.7784 35.9631 46.1992C36.338 46.2153 36.7051 46.3117 37.0395 46.4818C37.374 46.6519 37.6681 46.8917 37.9019 47.1851C38.1291 47.5401 38.2741 47.9414 38.3263 48.3596C38.3785 48.7778 38.3367 49.2023 38.2038 49.6023C37.7904 50.756 36.9417 51.7021 35.8394 52.2378C35.5933 52.3418 35.3288 52.3954 35.0615 52.3954ZM34.1252 49.9357C34.3727 50.3542 34.8148 50.9547 35.2286 50.7821C35.9156 50.4243 36.4444 49.8232 36.7119 49.0963C36.7645 48.9354 36.7846 48.7657 36.7711 48.597C36.7575 48.4283 36.7106 48.264 36.633 48.1135C36.5131 47.9961 36.3708 47.904 36.2146 47.8428C36.0583 47.7816 35.8913 47.7525 35.7236 47.7573L34.1252 49.9357ZM31.1375 48.0836C31.2629 48.5215 31.5347 48.9031 31.9075 49.1649C32.0239 49.2246 32.1513 49.2598 32.2818 49.2684C32.4123 49.2769 32.5432 49.2586 32.6664 49.2145L34.3491 46.33C34.416 46.1517 34.4202 45.956 34.3612 45.775C34.3022 45.594 34.1834 45.4384 34.0244 45.3338C33.9033 45.2384 33.7637 45.1694 33.6143 45.1313C33.465 45.0931 33.3094 45.0867 33.1574 45.1124C33.0233 45.1345 32.9008 45.2021 32.8107 45.3039C32.6026 45.7649 31.6017 47.3538 31.1375 48.0836Z" fill="white"/>
<path d="M29.0395 49.3145C28.8527 49.3151 28.6669 49.2885 28.4878 49.2357C27.1377 48.8298 26.6089 47.0818 26.553 46.8839C26.5247 46.7836 26.5166 46.6786 26.5292 46.5751C26.5418 46.4717 26.5748 46.3717 26.6263 46.281C27.2961 45.1174 28.0371 43.9962 28.8448 42.9236C29.2503 42.3961 29.8379 42.0386 30.4928 41.921C31.1477 41.8034 31.8229 41.9341 32.3866 42.2876C33.1306 42.8038 33.676 43.9269 32.7634 45.3944C32.7088 45.4824 32.6374 45.5587 32.5533 45.6191C32.4692 45.6795 32.374 45.7227 32.2732 45.7463C32.1724 45.7699 32.0679 45.7734 31.9657 45.7567C31.8636 45.7399 31.7657 45.7032 31.6777 45.6486C31.5898 45.594 31.5134 45.5226 31.453 45.4385C31.3926 45.3544 31.3494 45.2592 31.3258 45.1584C31.3022 45.0576 31.2987 44.9531 31.3155 44.8509C31.3322 44.7488 31.369 44.6509 31.4236 44.5629C31.6261 44.2359 31.8019 43.8016 31.4874 43.5833C31.2576 43.4578 30.9902 43.4191 30.7343 43.4744C30.4783 43.5296 30.2507 43.6752 30.0932 43.8844C29.4009 44.8043 28.7602 45.7621 28.1741 46.7531C28.3467 47.1653 28.6407 47.6374 28.941 47.7265C29.2066 47.8053 29.5715 47.5326 29.7693 47.3639C29.9275 47.2272 30.1336 47.159 30.3421 47.1742C30.5507 47.1894 30.7446 47.2869 30.8813 47.4451C31.018 47.6033 31.0863 47.8094 31.0711 48.0179C31.0558 48.2265 30.9584 48.4204 30.8002 48.5571C30.3263 49.0174 29.6995 49.287 29.0395 49.3145Z" fill="white"/>
<path d="M27.3105 47.4557C27.2238 47.4556 27.1378 47.4412 27.0559 47.4131C26.9227 47.3682 23.7813 46.2703 23.7813 43.8098C23.7812 43.7272 23.7939 43.645 23.8191 43.5663C24.1042 42.7815 24.4948 42.0391 24.98 41.3595C25.341 40.9281 25.8398 40.6342 26.3921 40.5274C26.9445 40.4206 27.5168 40.5074 28.0127 40.7732C28.4795 40.98 28.8517 41.3544 29.056 41.8223C29.2603 42.2902 29.2817 42.8177 29.1161 43.3007C28.6006 44.9605 28.0718 46.8575 28.0663 46.8772C28.02 47.0429 27.9208 47.1889 27.7837 47.2929C27.6467 47.397 27.4794 47.4533 27.3073 47.4533L27.3105 47.4557ZM25.3638 43.932C25.4426 44.6697 26.1976 45.2308 26.8029 45.5673C27.0086 44.8486 27.3136 43.8027 27.6131 42.8357C27.6406 42.7743 27.6547 42.7077 27.6543 42.6404C27.654 42.5731 27.6394 42.5066 27.6113 42.4454C27.5833 42.3843 27.5425 42.3298 27.4917 42.2856C27.4409 42.2415 27.3813 42.2087 27.3168 42.1894C27.1539 42.0976 26.9675 42.056 26.7811 42.0701C26.5947 42.0841 26.4166 42.1531 26.2694 42.2682C25.904 42.7858 25.6001 43.3441 25.3638 43.932Z" fill="white"/>
<path d="M25.2181 43.2382C25.0595 43.238 24.9045 43.19 24.7736 43.1003L22.7064 41.6817C22.5338 41.5636 22.4153 41.3818 22.3768 41.1762C22.3383 40.9707 22.383 40.7583 22.5011 40.5858C22.6192 40.4132 22.801 40.2947 23.0065 40.2562C23.212 40.2177 23.4244 40.2624 23.597 40.3805L25.6642 41.7991C25.8035 41.8941 25.9086 42.0313 25.9641 42.1904C26.0196 42.3496 26.0227 42.5224 25.9728 42.6834C25.9228 42.8444 25.8226 42.9852 25.6868 43.0851C25.551 43.1849 25.3867 43.2386 25.2181 43.2382Z" fill="white"/>
</svg>
